<svg xmlns="http://www.w3.org/2000/svg" width="35" height="36" viewBox="0 0 35 36" fill="none">
  <path d="M17.5 0.5C7.8349 0.5 0 8.3349 0 18C0 27.6651 7.8349 35.5 17.5 35.5C27.1651 35.5 35 27.6651 35 18C35 8.3349 27.1651 0.5 17.5 0.5ZM24.2302 20.244C24.2302 20.244 25.7779 21.7716 26.1589 22.4807C26.1698 22.4953 26.1753 22.5099 26.1789 22.5172C26.3339 22.7779 26.3703 22.9802 26.2938 23.1315C26.1661 23.3831 25.7286 23.507 25.5792 23.518H22.8448C22.6552 23.518 22.2578 23.4687 21.7766 23.137C21.4065 22.8781 21.0419 22.4534 20.6865 22.0396C20.156 21.4234 19.6966 20.8911 19.2336 20.8911C19.1748 20.891 19.1163 20.9003 19.0604 20.9185C18.7104 21.0315 18.262 21.531 18.262 22.8617C18.262 23.2773 17.9339 23.5161 17.7023 23.5161H16.45C16.0234 23.5161 13.8013 23.3667 11.8326 21.2904C9.42266 18.7474 7.25338 13.6469 7.23516 13.5995C7.09844 13.2695 7.38099 13.0927 7.68906 13.0927H10.4508C10.819 13.0927 10.9393 13.3169 11.0232 13.5156C11.1216 13.7471 11.4826 14.6677 12.075 15.7031C13.0357 17.3911 13.6245 18.0766 14.0966 18.0766C14.1851 18.0755 14.2721 18.053 14.35 18.0109C14.9661 17.6682 14.8513 15.4716 14.824 15.0159C14.824 14.9302 14.8221 14.0333 14.5068 13.6031C14.2807 13.2914 13.8961 13.1729 13.6628 13.1292C13.7572 12.9988 13.8816 12.8932 14.0255 12.8211C14.4484 12.6096 15.2104 12.5786 15.9669 12.5786H16.388C17.2083 12.5896 17.4198 12.6424 17.7169 12.7172C18.3185 12.8612 18.3312 13.2495 18.2784 14.5784C18.262 14.9557 18.2456 15.3823 18.2456 15.8854C18.2456 15.9948 18.2401 16.1115 18.2401 16.2354C18.2219 16.9117 18.2 17.6792 18.6776 17.9945C18.7399 18.0336 18.8119 18.0544 18.8854 18.0547C19.0513 18.0547 19.5508 18.0547 20.9034 15.7341C21.3205 14.9872 21.683 14.211 21.988 13.4117C22.0154 13.3643 22.0956 13.2185 22.1904 13.162C22.2603 13.1263 22.3379 13.1082 22.4164 13.1091H25.663C26.0167 13.1091 26.2591 13.162 26.3047 13.2987C26.3849 13.5156 26.2901 14.1773 24.8081 16.1844L24.1464 17.0576C22.8029 18.8185 22.8029 18.9078 24.2302 20.244Z" fill="white"/>
</svg>
