<svg width="18" height="11" viewBox="0 0 18 11" fill="none" xmlns="http://www.w3.org/2000/svg">
<path fill-rule="evenodd" clip-rule="evenodd" d="M15.6241 7.5098C15.6241 7.5098 17.0383 8.90651 17.3882 9.55282C17.395 9.56215 17.4003 9.57248 17.4039 9.58344C17.5465 9.8222 17.5814 10.0094 17.5115 10.1475C17.3934 10.3758 16.9937 10.4904 16.8582 10.5H14.3586C14.1846 10.5 13.8225 10.4545 13.3817 10.1502C13.045 9.9149 12.71 9.52746 12.3855 9.14877C11.901 8.58641 11.4821 8.09839 11.0579 8.09839C11.0043 8.09828 10.9511 8.10715 10.9005 8.12463C10.5795 8.22608 10.172 8.68349 10.172 9.90178C10.172 10.2831 9.8711 10.5 9.66033 10.5H8.5155C8.12543 10.5 6.09465 10.3636 4.29388 8.46484C2.0873 6.1402 0.105492 1.47691 0.0862513 1.43581C-0.0370651 1.13407 0.221812 0.969652 0.501679 0.969652H3.02573C3.36419 0.969652 3.47439 1.1743 3.55136 1.35797C3.64056 1.56874 3.97116 2.41184 4.5134 3.35902C5.39148 4.90003 5.9311 5.52711 6.36227 5.52711C6.44328 5.52735 6.52291 5.50623 6.59316 5.46589C7.15639 5.15629 7.05144 3.14474 7.02521 2.73019C7.02521 2.64973 7.02433 1.83199 6.73572 1.43668C6.52932 1.15331 6.17773 1.04312 5.96521 1.00289C6.02206 0.920675 6.14275 0.794735 6.29755 0.720395C6.68324 0.527987 7.38029 0.5 8.07208 0.5H8.45603C9.20642 0.510495 9.40058 0.558597 9.67345 0.627689C10.2227 0.758877 10.2332 1.11483 10.1851 2.32701C10.1711 2.67334 10.1562 3.06341 10.1562 3.52256C10.1562 3.62052 10.1518 3.72984 10.1518 3.84091C10.1352 4.46274 10.1134 5.16329 10.5524 5.45102C10.6093 5.4865 10.6751 5.50528 10.7422 5.50525C10.8944 5.50525 11.35 5.50525 12.5858 3.38438C13.1281 2.4477 13.5479 1.3431 13.5767 1.26001C13.6012 1.21366 13.6747 1.08335 13.7639 1.03087C13.8273 0.99711 13.8984 0.980244 13.9703 0.981896H16.9395C17.2631 0.981896 17.4826 1.03087 17.5255 1.15331C17.5972 1.35185 17.5115 1.95793 16.1559 3.79106C15.9276 4.09629 15.7273 4.36042 15.5515 4.59131C14.3227 6.20404 14.3227 6.28538 15.6241 7.5098Z" fill="currentColor"/>
</svg>
